<?xml version="1.0" encoding="UTF-8"?>
<svg id="Layer_1" xmlns="http://www.w3.org/2000/svg" version="1.1" viewBox="0 0 470 98">
  <!-- Generator: Adobe Illustrator 29.8.1, SVG Export Plug-In . SVG Version: 2.1.1 Build 2)  -->
  <defs>
    <style>
      .st0 {
        fill: #a8db2c;
      }

      .st1 {
        fill: #29a7fc;
      }

      .st2 {
        fill: #6b6b6b;
      }
    </style>
  </defs>
  <g>
    <path class="st1" d="M85.4,38.3c0-12,9.1-18.4,18.4-18.4s13.2,3.3,13.2,8.7-2.9,6.5-6.4,6.5-3.9-.6-4.7-1.1c.2-.8.2-2.1.2-2.8,0-1.5-.6-3-2.2-3s-3.6,4-3.6,9.3,1.5,11.6,3.4,11.6,2.3-1.5,2.3-2.7-.3-1.8-.5-2.5c.9-.6,3.1-1.7,5.4-1.7s6.4,1.9,6.4,5.3c0,5.5-6.4,9.7-14.1,9.7-11.3,0-17.7-7.1-17.7-19.1Z"/>
    <path class="st1" d="M119.4,29.3c0-3.3-.8-6.3-1.5-6.8,0-2.1,3.2-4,7.6-4s7.6,1.3,9.4,2.8c-.9,2.8-1.8,7.4-1.8,13.1v12.9c0,3.3.8,6.7.8,7.8s-.2,1.1-.7,1.2c-1.4.3-3.3.5-6.6.5s-6.1-.3-7-.5c-.5-.2-.8-.5-.8-1.1,0-.9.6-5.3.6-8.2v-17.7Z"/>
    <path class="st1" d="M165.7,41.1c0,1.6-3.2,2.6-7.2,2.6s-6.8-.4-8.5-.7c.2,5.7,1.8,9.6,3.4,9.6s1.6-1.1,1.6-2.6-.2-1.7-.4-2.5c.8-.7,2-.9,3.1-.9,2.9,0,5.8,2.3,6.7,5-2.1,3.5-6.3,5.6-13,5.6s-15.3-5-15.3-15,6.4-16.3,16-16.3,13.6,3.7,13.6,15.1ZM149.8,39.9c1.8,0,3.2-.3,4.3-.7,0-5.3-.9-8.3-2.2-8.3s-2.1,3.9-2.1,9Z"/>
    <path class="st1" d="M197.3,37.3v11.1c0,2.2.8,4,1.3,4.1.3.2.4.5.4.9,0,2.7-4.6,3.9-6.5,3.9-4.2,0-5.8-1.3-7-3.3-1.4,2.1-5.4,3.3-9.6,3.3s-9.4-1.9-9.4-6.3,3.1-6.4,6.4-7.5c3.1-1,6.5-1.8,10.8-1.8,0-7.4-1.2-10.8-2.6-10.8s-1.9,1.3-1.9,3.7.5,3.6.9,4.4c-1.2,1.2-4.4,2.2-7.2,2.2s-5.1-1.9-5.1-5.6c0-6,7.5-9.5,15.5-9.5s14.1,3.2,14.1,11.3ZM181.4,52.4c.8,0,1.9-1.3,2.2-2.5v-5.1c-2,0-4,2.1-4,4.1s.8,3.5,1.8,3.5Z"/>
    <path class="st1" d="M224.3,26c5.6,0,9.6,4.1,9.6,8.9v13.5c0,4.2.5,5.5.5,6.4s-.3,1.2-.7,1.4c-1.5.5-4,.6-6.8.6s-5.3-.3-6.2-.6c-.4-.1-.7-.4-.7-1,0-.9.2-3,.2-3.9v-12.7c0-2.2-.8-4.1-2.5-4.1s-.9.2-1.4.5v13c0,3.2.5,5.9.5,6.9s-.7,1.1-1,1.3c-1.4.5-4,.6-6.5.6s-4.5-.1-6-.5c-.7-.2-1.1-.5-1.1-1.2s.4-2.1.4-4.4v-15.1c0-2.2-.9-3.5-1.7-4.3,0-1.9,4-4.2,7.2-4.2s5.6,1.3,6.8,3.5c1.7-2.7,5.2-4.5,9.4-4.5Z"/>
    <path class="st1" d="M266.1,41.1c0,1.6-3.2,2.6-7.2,2.6s-6.8-.4-8.5-.7c.2,5.7,1.8,9.6,3.4,9.6s1.6-1.1,1.6-2.6-.2-1.7-.4-2.5c.8-.7,2-.9,3.1-.9,2.9,0,5.8,2.3,6.7,5-2.1,3.5-6.3,5.6-13,5.6s-15.3-5-15.3-15,6.4-16.3,16-16.3,13.6,3.7,13.6,15.1ZM250.2,39.9c1.8,0,3.2-.3,4.3-.7,0-5.3-.9-8.3-2.2-8.3s-2.1,3.9-2.1,9Z"/>
    <path class="st1" d="M269.5,37.4c0-2.7-1.6-4.5-2.8-5,0-.1-.1-.3-.1-.4,0-3.1,3.7-5,7.4-5s4.9,1.3,6.1,4.1c1.1-2.8,4.2-5.1,7.4-5.1s5.2,1.7,5.2,4.5-1.7,5.4-3.3,6c-.4-.9-1.7-1.6-3.2-1.6s-2.9,1.7-2.9,3.5v11.3c0,1.9.7,4.5.7,5.4s-.5,1.2-.8,1.3c-1,.3-4,.3-6.8.3s-5.9-.3-6.7-.6c-.3-.2-.5-.5-.5-1.1,0-.9.5-4,.5-6.5v-11.1Z"/>
    <path class="st1" d="M323.4,56.7c3.2,1.5,9.2,2.5,12.3,2.5s4-.5,5.6-1.4c.8.9,1.3,2.8,1.3,4.1,0,3.8-3.4,5.8-8.5,5.8s-15-6-19.9-10.7c-9.7-1.6-14.4-9.1-14.4-19.2s8.3-17.9,18.4-17.9,18.2,5.4,18.2,17.9-4.1,16.5-13,18.9ZM321.5,39.2c0-6.8-1.9-10.5-4-10.5s-2.9,2.4-2.9,8.5,2.3,11.9,4.2,11.9,2.7-3.4,2.7-10Z"/>
    <path class="st1" d="M349.4,57.3c-5,0-10.1-2.9-10.1-8.5v-13.6c0-1.6-.7-3.2-1.4-3.5-.2-.2-.5-.6-.5-1.2,0-2.6,3.3-4.4,6.8-4.4s7,1.2,8.7,4v16.2c0,2.3.9,3.7,2.3,3.7s1-.3,1.4-.6v-15.4c0-2.1-.8-2.9-1.5-3.2-.2-.2-.5-.6-.5-1,0-1.9,2.5-3.5,5.3-3.5,4.7,0,10.4,1.2,10.4,4.2v18.4c0,1.7.6,3,1.1,3.5.1.2.2.5.2.7,0,2.6-3.7,4.5-7.6,4.5s-4.8-1.5-6-3.2c-2,1.9-4.5,3.2-8.8,3.2Z"/>
    <path class="st1" d="M402.9,41.1c0,1.6-3.2,2.6-7.2,2.6s-6.8-.4-8.5-.7c.2,5.7,1.8,9.6,3.4,9.6s1.6-1.1,1.6-2.6-.2-1.7-.4-2.5c.8-.7,2-.9,3.1-.9,2.9,0,5.8,2.3,6.7,5-2.1,3.5-6.3,5.6-13,5.6s-15.3-5-15.3-15,6.4-16.3,16-16.3,13.6,3.7,13.6,15.1ZM387,39.9c1.8,0,3.2-.3,4.3-.7,0-5.3-.9-8.3-2.2-8.3s-2.1,3.9-2.1,9Z"/>
    <path class="st1" d="M433.5,41.1c0,1.6-3.2,2.6-7.2,2.6s-6.8-.4-8.5-.7c.2,5.7,1.8,9.6,3.4,9.6s1.6-1.1,1.6-2.6-.2-1.7-.4-2.5c.8-.7,2-.9,3.1-.9,2.9,0,5.8,2.3,6.7,5-2.1,3.5-6.3,5.6-13,5.6s-15.3-5-15.3-15,6.4-16.3,16-16.3,13.6,3.7,13.6,15.1ZM417.6,39.9c1.8,0,3.2-.3,4.3-.7,0-5.3-.9-8.3-2.2-8.3s-2.1,3.9-2.1,9Z"/>
    <path class="st1" d="M458.2,26c5.6,0,9.6,4.1,9.6,8.9v13.5c0,4.2.5,5.5.5,6.4s-.3,1.2-.7,1.4c-1.5.5-4,.6-6.8.6s-5.3-.3-6.2-.6c-.4-.1-.7-.4-.7-1,0-.9.2-3,.2-3.9v-12.7c0-2.2-.8-4.1-2.5-4.1s-.9.2-1.4.5v13c0,3.2.5,5.9.5,6.9s-.7,1.1-1,1.3c-1.4.5-4,.6-6.5.6s-4.5-.1-6-.5c-.7-.2-1.1-.5-1.1-1.2s.4-2.1.4-4.4v-15.1c0-2.2-.9-3.5-1.7-4.3,0-1.9,4-4.2,7.2-4.2s5.6,1.3,6.8,3.5c1.7-2.7,5.2-4.5,9.4-4.5Z"/>
  </g>
  <g>
    <path class="st2" d="M122.1,80.7v-9.1h-1.2c-.1-.2-.3-.2-.4-.3,0,0-.1-.2-.1-.3v-.8h1.7v-1c0-.6,0-1.2.3-1.6s.4-.9.7-1.2.7-.6,1.2-.7c.5-.2,1-.3,1.5-.3s.9,0,1.3.2v.9c0,.2-.2.3-.3.3-.2,0-.4,0-.7,0s-.6,0-.9.1-.5.2-.7.4c-.2.2-.3.4-.4.8-.1.3-.2.7-.2,1.2v1h3.1v1.4h-3v9.2h-1.9Z"/>
    <path class="st2" d="M137.7,69.9v10.7h-1.1c-.3,0-.4-.1-.5-.4v-1.2c-.6.5-1.1.9-1.7,1.2-.6.3-1.2.5-2,.5s-1.1,0-1.6-.3c-.4-.2-.8-.5-1.1-.8s-.5-.8-.7-1.3c-.2-.5-.2-1.1-.2-1.7v-6.9h1.9v6.9c0,.8.2,1.4.6,1.9.4.4.9.7,1.7.7s1.1-.1,1.6-.4.9-.6,1.3-1.1v-7.9h1.9Z"/>
    <path class="st2" d="M142.6,65.1v15.6h-1.9v-15.6h1.9Z"/>
    <path class="st2" d="M147.6,65.1v15.6h-1.9v-15.6h1.9Z"/>
    <path class="st2" d="M163.6,71.9c0,0-.1.1-.2.2,0,0-.1,0-.2,0s-.2,0-.4-.1c-.1,0-.3-.2-.5-.3-.2-.1-.4-.2-.7-.3-.3,0-.6-.1-1-.1s-1,0-1.4.3c-.4.2-.7.5-1,.8-.3.4-.5.8-.6,1.3-.1.5-.2,1.1-.2,1.7s0,1.2.2,1.7.4.9.6,1.3c.3.3.6.6,1,.8.4.2.8.3,1.3.3s.8,0,1.1-.2c.3-.1.5-.2.7-.4.2-.1.4-.3.5-.4.1-.1.3-.2.4-.2s.3,0,.4.2l.5.7c-.2.3-.5.5-.8.7s-.6.4-1,.5c-.3.1-.7.2-1.1.3s-.8,0-1.1,0c-.7,0-1.3-.1-1.9-.4-.6-.2-1.1-.6-1.5-1.1-.4-.5-.8-1-1-1.7-.2-.7-.4-1.5-.4-2.3s.1-1.5.3-2.2.5-1.3,1-1.8c.4-.5,1-.9,1.6-1.2.6-.3,1.3-.4,2.2-.4s1.4.1,2,.4c.6.2,1.1.6,1.5,1l-.5.7Z"/>
    <path class="st2" d="M168.2,65.1v15.6h-1.9v-15.6h1.9Z"/>
    <path class="st2" d="M180,79.2c-.2.3-.5.5-.8.7-.3.2-.7.4-1,.5-.4.1-.8.2-1.2.3s-.8.1-1.2.1c-.7,0-1.4-.1-2.1-.4-.6-.2-1.2-.6-1.6-1.1-.5-.5-.8-1.1-1.1-1.8-.3-.7-.4-1.5-.4-2.5s.1-1.5.3-2.1.6-1.2,1-1.7c.4-.5,1-.9,1.6-1.1.6-.3,1.3-.4,2.1-.4s1.2.1,1.8.3,1,.5,1.4.9c.4.4.7.9.9,1.5.2.6.3,1.3.3,2s0,.5,0,.6c0,0-.2.1-.4.1h-7.2c0,.7.1,1.3.3,1.8s.4.9.7,1.3c.3.3.7.6,1.1.8.4.2.9.2,1.4.2s.9,0,1.2-.2c.3-.1.6-.2.9-.4s.5-.2.6-.4c.2-.1.3-.2.4-.2s.3,0,.4.2l.5.7ZM178.5,74.1c0-.4,0-.8-.2-1.2-.1-.4-.3-.7-.5-.9-.2-.3-.5-.5-.9-.6-.3-.1-.7-.2-1.2-.2-.9,0-1.6.3-2.1.8-.5.5-.9,1.3-1,2.2h5.9Z"/>
    <path class="st2" d="M182.2,71.5c.6-.6,1.2-1,1.9-1.3.7-.3,1.4-.4,2.3-.4s1.1,0,1.6.3c.5.2.9.5,1.2.8.3.4.6.8.7,1.3s.2,1.1.2,1.7v6.9h-.8c-.2,0-.3,0-.4,0,0,0-.2-.2-.2-.4l-.2-1c-.3.3-.6.5-.8.7-.3.2-.6.4-.8.5-.3.1-.6.2-.9.3s-.7.1-1.1.1-.8,0-1.2-.2c-.4-.1-.7-.3-1-.5-.3-.2-.5-.5-.6-.9s-.2-.8-.2-1.3.1-.8.4-1.2.6-.7,1.1-1c.5-.3,1.2-.6,2-.7.8-.2,1.9-.3,3.1-.3v-.8c0-.8-.2-1.5-.5-1.9-.4-.4-.9-.6-1.6-.6s-.9,0-1.2.2c-.3.1-.6.2-.8.4-.2.1-.4.3-.6.4-.2.1-.3.2-.5.2s-.2,0-.3-.1c0,0-.2-.1-.2-.2l-.3-.6ZM188.3,75.9c-.9,0-1.6,0-2.2.2-.6.1-1.1.3-1.5.4-.4.2-.7.4-.8.6-.2.2-.3.5-.3.8s0,.5.1.7c0,.2.2.4.4.5.2.1.3.2.6.3.2,0,.4,0,.7,0s.6,0,.9-.1.5-.2.8-.3.5-.3.7-.5.4-.4.7-.6v-2.2Z"/>
    <path class="st2" d="M194.8,71.5c.2-.3.5-.5.7-.7.3-.2.5-.4.8-.5.3-.2.6-.3.9-.3.3,0,.7-.1,1.1-.1.6,0,1.1,0,1.6.3.4.2.8.5,1.1.8.3.4.5.8.7,1.3.2.5.2,1.1.2,1.7v6.8h-1.9v-6.8c0-.8-.2-1.4-.6-1.9-.4-.4-.9-.7-1.7-.7s-1.1.1-1.6.4-.9.6-1.3,1.1v7.9h-1.9v-10.7h1.1c.3,0,.4.1.5.4v1.2Z"/>
    <path class="st2" d="M207.3,66.6c0,.2,0,.4-.1.5s-.2.3-.3.4c-.1.1-.3.2-.4.3-.2,0-.3.1-.5.1s-.4,0-.5-.1c-.2,0-.3-.2-.4-.3-.1-.1-.2-.3-.3-.4s-.1-.3-.1-.5,0-.4.1-.5.2-.3.3-.4c.1-.1.3-.2.4-.3.2,0,.3-.1.5-.1s.4,0,.5.1c.2,0,.3.2.4.3.1.1.2.3.3.4s.1.3.1.5ZM206.8,69.9v10.7h-1.9v-10.7h1.9Z"/>
    <path class="st2" d="M211.7,71.5c.2-.3.5-.5.7-.7.3-.2.5-.4.8-.5.3-.2.6-.3.9-.3.3,0,.7-.1,1.1-.1.6,0,1.1,0,1.6.3.4.2.8.5,1.1.8.3.4.5.8.7,1.3.2.5.2,1.1.2,1.7v6.8h-1.9v-6.8c0-.8-.2-1.4-.6-1.9-.4-.4-.9-.7-1.7-.7s-1.1.1-1.6.4-.9.6-1.3,1.1v7.9h-1.9v-10.7h1.1c.3,0,.4.1.5.4v1.2Z"/>
    <path class="st2" d="M230.9,70.4v.7c0,.2-.1.4-.4.4l-1.2.2c.2.5.4,1,.4,1.5s-.1,1-.3,1.4-.5.8-.8,1.1c-.4.3-.8.5-1.3.7-.5.2-1,.2-1.6.2s-1,0-1.4-.2c-.2.1-.4.3-.5.5s-.2.3-.2.5c0,.3.1.4.3.6.2.1.5.2.8.3.3,0,.7,0,1.2.1.4,0,.9,0,1.3,0,.5,0,.9,0,1.3.2.4,0,.8.2,1.2.4.3.2.6.4.8.7.2.3.3.7.3,1.2s-.1.9-.3,1.3-.6.8-1,1.2c-.4.3-1,.6-1.6.8s-1.3.3-2.1.3-1.5,0-2.1-.2c-.6-.2-1.1-.4-1.5-.6-.4-.3-.7-.6-.9-.9s-.3-.7-.3-1.1c0-.5.2-1,.5-1.3.3-.4.8-.7,1.4-.9-.3-.1-.6-.3-.8-.6-.2-.2-.3-.6-.3-1s0-.3,0-.5.1-.3.3-.5.3-.3.4-.5c.2-.1.4-.3.6-.4-.5-.3-.9-.7-1.2-1.2-.3-.5-.4-1.1-.4-1.7s.1-1,.3-1.4.5-.8.8-1.1c.4-.3.8-.5,1.3-.7.5-.2,1-.2,1.6-.2s.9,0,1.3.2c.4.1.8.3,1.1.5h2.9ZM228.9,81.3c0-.3,0-.5-.2-.6-.1-.2-.3-.3-.6-.4-.3,0-.5-.2-.9-.2s-.7,0-1.1,0c-.4,0-.7,0-1.1,0s-.7,0-1.1-.1c-.4.2-.7.4-1,.7s-.4.6-.4,1,0,.5.2.7c.1.2.3.4.6.5.3.2.6.3,1,.4.4,0,.8.1,1.4.1s1,0,1.4-.1c.4,0,.7-.2,1-.4.3-.2.5-.4.6-.6s.2-.5.2-.8ZM225.5,75.4c.4,0,.7,0,1-.2.3-.1.5-.3.7-.4.2-.2.3-.4.4-.7,0-.3.1-.6.1-.9,0-.7-.2-1.2-.6-1.6-.4-.4-1-.6-1.7-.6s-1.3.2-1.7.6-.6.9-.6,1.6,0,.6.2.9c.1.3.3.5.5.7.2.2.4.3.7.4.3.1.6.2,1,.2Z"/>
    <path class="st2" d="M244.5,71.7c0,.2-.2.2-.4.2s-.2,0-.4-.1c-.1,0-.3-.2-.5-.3-.2,0-.4-.2-.7-.3-.3,0-.6-.1-1-.1s-.6,0-.9.1c-.3,0-.5.2-.7.3-.2.1-.3.3-.4.5s-.1.4-.1.6,0,.5.2.7c.2.2.4.3.6.5.3.1.6.3.9.4.3.1.7.2,1,.3.3.1.7.2,1,.4s.6.3.9.5c.3.2.5.5.6.8s.2.7.2,1.1,0,1-.3,1.4c-.2.4-.4.8-.8,1.1-.3.3-.8.5-1.3.7s-1.1.3-1.7.3-1.4-.1-2-.4c-.6-.2-1.1-.6-1.5-.9l.4-.7c0,0,.1-.2.2-.2s.2,0,.3,0,.3,0,.4.1.3.2.5.3c.2.1.4.2.7.3.3,0,.7.1,1.1.1s.7,0,1-.1c.3,0,.5-.2.7-.4.2-.2.3-.3.4-.6,0-.2.1-.4.1-.7s0-.5-.2-.7c-.2-.2-.4-.4-.6-.5s-.6-.3-.9-.4c-.3-.1-.7-.2-1-.3-.3-.1-.7-.2-1-.4s-.6-.3-.9-.5c-.3-.2-.5-.5-.6-.8-.2-.3-.2-.7-.2-1.2s0-.8.3-1.2c.2-.4.4-.7.7-1s.7-.5,1.2-.7c.5-.2,1-.3,1.6-.3s1.3.1,1.9.3,1,.5,1.5.9l-.4.7Z"/>
    <path class="st2" d="M256.2,79.2c-.2.3-.5.5-.8.7-.3.2-.7.4-1,.5-.4.1-.8.2-1.2.3s-.8.1-1.2.1c-.7,0-1.4-.1-2.1-.4-.6-.2-1.2-.6-1.6-1.1-.5-.5-.8-1.1-1.1-1.8-.3-.7-.4-1.5-.4-2.5s.1-1.5.3-2.1c.2-.7.6-1.2,1-1.7.4-.5,1-.9,1.6-1.1s1.3-.4,2.1-.4,1.2.1,1.8.3,1,.5,1.4.9c.4.4.7.9.9,1.5.2.6.3,1.3.3,2s0,.5,0,.6c0,0-.2.1-.4.1h-7.2c0,.7.1,1.3.3,1.8s.4.9.7,1.3.7.6,1.1.8.9.2,1.4.2.9,0,1.2-.2.6-.2.9-.4c.2-.1.5-.2.6-.4.2-.1.3-.2.4-.2s.3,0,.4.2l.5.7ZM254.6,74.1c0-.4,0-.8-.2-1.2-.1-.4-.3-.7-.5-.9-.2-.3-.5-.5-.9-.6-.3-.1-.7-.2-1.2-.2-.9,0-1.6.3-2.1.8-.5.5-.9,1.3-1,2.2h5.9Z"/>
    <path class="st2" d="M260.4,72.1c.3-.7.8-1.3,1.3-1.7.5-.4,1.1-.6,1.8-.6s.4,0,.7,0c.2,0,.4.1.6.2v1.4c-.2.2-.3.3-.5.3s-.2,0-.4,0c-.2,0-.4,0-.6,0-.3,0-.6,0-.9.1-.3,0-.5.2-.7.4-.2.2-.4.4-.6.7-.2.3-.3.6-.5,1v6.8h-1.9v-10.7h1.1c.2,0,.3,0,.4.1,0,0,.1.2.2.4v1.6Z"/>
    <path class="st2" d="M275.6,69.9l-4.4,10.7h-1.7l-4.4-10.7h1.5c.2,0,.3,0,.4.1,0,0,.2.2.2.3l2.7,6.9c0,.3.2.5.2.8,0,.2.1.5.2.7,0-.2.1-.5.2-.7,0-.2.1-.5.2-.8l2.8-6.9c0-.1.1-.2.2-.3,0,0,.2-.1.3-.1h1.5Z"/>
    <path class="st2" d="M279.7,66.6c0,.2,0,.4-.1.5s-.2.3-.3.4-.3.2-.4.3c-.2,0-.3.1-.5.1s-.4,0-.5-.1c-.2,0-.3-.2-.4-.3s-.2-.3-.3-.4-.1-.3-.1-.5,0-.4.1-.5.2-.3.3-.4c.1-.1.3-.2.4-.3.2,0,.3-.1.5-.1s.4,0,.5.1c.2,0,.3.2.4.3.1.1.2.3.3.4s.1.3.1.5ZM279.3,69.9v10.7h-1.9v-10.7h1.9Z"/>
    <path class="st2" d="M289.9,71.9c0,0-.1.1-.2.2,0,0-.1,0-.2,0s-.2,0-.4-.1c-.1,0-.3-.2-.5-.3-.2-.1-.4-.2-.7-.3-.3,0-.6-.1-1-.1s-1,0-1.4.3c-.4.2-.7.5-1,.8-.3.4-.5.8-.6,1.3s-.2,1.1-.2,1.7,0,1.2.2,1.7c.1.5.4.9.6,1.3.3.3.6.6,1,.8s.8.3,1.3.3.8,0,1.1-.2.5-.2.7-.4c.2-.1.4-.3.5-.4.1-.1.3-.2.4-.2s.3,0,.4.2l.5.7c-.2.3-.5.5-.8.7-.3.2-.6.4-1,.5-.3.1-.7.2-1.1.3s-.8,0-1.1,0c-.7,0-1.3-.1-1.9-.4-.6-.2-1.1-.6-1.5-1.1-.4-.5-.8-1-1-1.7-.2-.7-.4-1.5-.4-2.3s.1-1.5.3-2.2c.2-.7.5-1.3,1-1.8s1-.9,1.6-1.2c.6-.3,1.3-.4,2.2-.4s1.4.1,2,.4c.6.2,1.1.6,1.5,1l-.5.7Z"/>
    <path class="st2" d="M301.1,79.2c-.2.3-.5.5-.8.7-.3.2-.7.4-1,.5-.4.1-.8.2-1.2.3-.4,0-.8.1-1.2.1-.7,0-1.4-.1-2.1-.4-.6-.2-1.2-.6-1.6-1.1s-.8-1.1-1.1-1.8c-.3-.7-.4-1.5-.4-2.5s.1-1.5.3-2.1c.2-.7.6-1.2,1-1.7.4-.5,1-.9,1.6-1.1.6-.3,1.3-.4,2.1-.4s1.2.1,1.8.3c.5.2,1,.5,1.4.9.4.4.7.9.9,1.5.2.6.3,1.3.3,2s0,.5,0,.6c0,0-.2.1-.4.1h-7.2c0,.7.1,1.3.3,1.8s.4.9.7,1.3c.3.3.7.6,1.1.8s.9.2,1.4.2.9,0,1.2-.2c.3-.1.6-.2.9-.4.2-.1.5-.2.6-.4.2-.1.3-.2.4-.2s.3,0,.4.2l.5.7ZM299.5,74.1c0-.4,0-.8-.2-1.2s-.3-.7-.5-.9c-.2-.3-.5-.5-.9-.6-.3-.1-.7-.2-1.2-.2-.9,0-1.6.3-2.1.8-.5.5-.9,1.3-1,2.2h5.9Z"/>
    <path class="st2" d="M309.8,71.7c0,.2-.2.2-.4.2s-.2,0-.4-.1c-.1,0-.3-.2-.5-.3s-.4-.2-.7-.3c-.3,0-.6-.1-1-.1s-.6,0-.9.1c-.3,0-.5.2-.7.3s-.3.3-.4.5c0,.2-.1.4-.1.6s0,.5.2.7c.2.2.4.3.6.5.3.1.6.3.9.4.3.1.7.2,1,.3.4.1.7.2,1,.4.3.1.6.3.9.5.3.2.5.5.6.8s.2.7.2,1.1,0,1-.3,1.4c-.2.4-.4.8-.8,1.1s-.8.5-1.3.7c-.5.2-1.1.3-1.7.3s-1.4-.1-2-.4c-.6-.2-1.1-.6-1.5-.9l.4-.7c0,0,.1-.2.2-.2,0,0,.2,0,.3,0s.3,0,.4.1.3.2.5.3.4.2.7.3c.3,0,.7.1,1.1.1s.7,0,1-.1c.3,0,.5-.2.7-.4.2-.2.3-.3.4-.6,0-.2.1-.4.1-.7s0-.5-.2-.7c-.2-.2-.4-.4-.6-.5s-.6-.3-.9-.4-.7-.2-1-.3c-.3-.1-.7-.2-1-.4-.3-.1-.6-.3-.9-.5-.3-.2-.5-.5-.6-.8-.2-.3-.2-.7-.2-1.2s0-.8.3-1.2c.2-.4.4-.7.7-1s.7-.5,1.2-.7c.5-.2,1-.3,1.6-.3s1.3.1,1.9.3,1,.5,1.5.9l-.4.7Z"/>
  </g>
  <g>
    <path class="st1" d="M46.7,31.2c.7,1.3.9,2.7.7,4.1s-1,2-.5,3.8,2.2,3,2.7,4.5-2.6,1.9-2.8,2.3c0,.6.7,1.1.6,1.6s-1,1.3-1.5,1.7h.9c.5,1.5-1.2,1.8-1.6,2.7s.4,1.9-.3,3.1c-1.6,2.8-6.5-.8-8.5-.9s-1.8,1.2-2.2,2.2c-4.5,10.8,5.1,16,14.6,15.5s1.3-.2,2-.3.5-.1.5.1c-2.9,1.1-5.7,2.2-8.8,2.7-13.8,2.2-26.8-4.4-30.7-16.9s-1.3-7.4-.7-11.1l.7-4.6c-.8,1.6-1.5,3.4-2,5.2-5.9,21.2,9,35.2,29.9,31.9,9.7-1.5,17.8-7,26.9-10.4,13.2-5,28.8-7,42.2-1.4l1.1.6c-9.5-2.6-19.8-1.3-29,2-17.9,6.6-27.9,19.4-49.1,18.2-23.3-1.2-36.8-21.5-27.1-43.3,6.5-14.8,20.2-24.5,36.8-21.4,2.8.5,5,1.5,5.8,4.4s.6,3.4-.8,3.5ZM17.3,55.7c.7-5.2,4.5-9.4,8.6-12.5,4.7-3.4,10.7-5.3,14.3-10.1s2.6-4.5,3.1-7c-1.1,1.3-2,2.8-3.1,4.1-8.2,8.9-24.4,7.4-23.4,23.5,0,.4.1,1.1.2,1.5s0,.5.3.4Z"/>
    <path class="st0" d="M107.3,73.4c0,.3-.3.1-.5,0-1.7-.4-3.3-1-5.1-1.1-17.6-1.3-32.3,13-47.3,20s-32.4,6.5-44.6-4.8l5.9,2.9c10.8,4.5,20.1,3.4,30.8-.7,10.8-4.2,19.7-12,30.5-16.1,9.4-3.6,20.9-4.7,30.2-.2Z"/>
    <path class="st0" d="M40.8,9.1c0,1.3-.6,5.5.1,6.5s2.2,0,2.8-.7,2.3-2.5,2.3-2.7-.2-.4-.2-.6c-.2-3,3.2-2.8,2.9-.3s-1.2,1-1.6,1.3-.4.9-.4,1.1c-1.1,2.7-1.9,5.7-2.5,8.6-8.5-2.7-18.3-1.4-25.8,3.2-1.7-4.1-3.6-8.1-5.9-11.9-1.2,0-2.4-.6-2.5-1.9-.1-2.7,4.2-2.7,3.9.2s-.3.6-.2.9c.3.4,1.8,1.8,2.3,2.3,1.6,1.5,4,3.8,4.6,0l-.6-5.7c-2.7.4-3.1-3.9-.3-4s3,2.6,1.3,3.7v.2c.9,1.4,3.4,5.9,5.1,6.2s2.3-1.2,2.8-2.7c.7-2.3.8-4.8,1.1-7.2-3-.7-1.9-4.9,1.1-4.4s2.2,2.8,1,3.9-1,.1-.9,1.3,1.7,6.1,2.6,7.3c2.8,3.7,4.8-2.9,5.9-4.7,0-.4-.4-.6-.6-1-1-1.9,1.1-3.7,2.8-2.5s.9,3.6-1,3.7Z"/>
    <path class="st1" d="M75.7,60l3.2,2.3-3.7-1.4c-2.5-.9-5.2-.1-6.8,2l-2.3,3.2,1.4-3.7c.9-2.5.1-5.2-2-6.8l-3.2-2.3,3.7,1.4c2.5.9,5.2.1,6.8-2l2.3-3.2-1.4,3.7c-.9,2.5-.1,5.2,2,6.8Z"/>
    <path class="st1" d="M74.6,44.6l2.8,1.7-3.1-1c-2-.6-4.1.2-5.2,1.9l-1.7,2.8,1-3.1c.6-2-.2-4.1-1.9-5.2l-2.8-1.7,3.1,1c2,.6,4.1-.2,5.2-1.9l1.7-2.8-1,3.1c-.6,2,.2,4.1,1.9,5.2Z"/>
    <path class="st1" d="M68.6,32.5l2.1,1.1-2.3-.5c-1.5-.3-3,.4-3.7,1.8l-1.1,2.1.5-2.3c.3-1.5-.4-3-1.8-3.7l-2.1-1.1,2.3.5c1.5.3,3-.4,3.7-1.8l1.1-2.1-.5,2.3c-.3,1.5.4,3,1.8,3.7Z"/>
    <path class="st1" d="M59,24.7l1.8.2-1.8.2c-1.1.1-2,1-2.1,2.1l-.2,1.8-.2-1.8c-.1-1.1-1-2-2.1-2.1l-1.8-.2,1.8-.2c1.1-.1,2-1,2.1-2.1l.2-1.8.2,1.8c.1,1.1,1,2,2.1,2.1Z"/>
    <path class="st1" d="M49.6,22.4h1c0,.1-1,.3-1,.3-.6,0-1.1.6-1.2,1.2v1c-.1,0-.3-1-.3-1,0-.6-.6-1.1-1.2-1.2h-1c0-.1,1-.3,1-.3.6,0,1.1-.6,1.2-1.2v-1c.1,0,.3,1,.3,1,0,.6.6,1.1,1.2,1.2Z"/>
  </g>
</svg>